<mxfile host="app.diagrams.net" modified="2022-02-23T07:30:44.043Z" agent="5.0 (Macintosh; Intel Mac OS X 10_15_7) AppleWebKit/537.36 (KHTML, like Gecko) Chrome/98.0.4758.102 Safari/537.36" etag="tfaCEhGAKRjN1n2Jmy42" version="16.6.2" type="github">
  <diagram id="C5RBs43oDa-KdzZeNtuy" name="Page-1">
    <mxGraphModel dx="1151" dy="693" grid="1" gridSize="10" guides="1" tooltips="1" connect="1" arrows="1" fold="1" page="1" pageScale="1" pageWidth="827" pageHeight="1169" math="0" shadow="0">
      <root>
        <mxCell id="WIyWlLk6GJQsqaUBKTNV-0" />
        <mxCell id="WIyWlLk6GJQsqaUBKTNV-1" parent="WIyWlLk6GJQsqaUBKTNV-0" />
        <UserObject label="" link="https://smilebriteorthodontics.com/wp-content/uploads/2017/03/map-map-marker-icon.png" id="Xzc4rUqVlPyLkDSU207_-0">
          <mxCell style="rounded=1;whiteSpace=wrap;html=1;fillColor=#f5f5f5;strokeColor=#666666;fontColor=#333333;direction=south;arcSize=3;" vertex="1" parent="WIyWlLk6GJQsqaUBKTNV-1">
            <mxGeometry x="40" y="220" width="750" height="610" as="geometry" />
          </mxCell>
        </UserObject>
        <mxCell id="Xzc4rUqVlPyLkDSU207_-1" value="&lt;font style=&quot;font-size: 22px&quot;&gt;&lt;b&gt;COVID 19 TRACKER&lt;/b&gt;&lt;/font&gt;" style="text;html=1;strokeColor=none;fillColor=none;align=center;verticalAlign=middle;whiteSpace=wrap;rounded=0;strokeWidth=22;" vertex="1" parent="WIyWlLk6GJQsqaUBKTNV-1">
          <mxGeometry x="80" y="250" width="220" height="80" as="geometry" />
        </mxCell>
        <mxCell id="Xzc4rUqVlPyLkDSU207_-2" value="&lt;font style=&quot;font-size: 16px&quot;&gt;Worldwide&lt;/font&gt;" style="rounded=1;whiteSpace=wrap;html=1;fontSize=22;strokeWidth=1;strokeColor=default;" vertex="1" parent="WIyWlLk6GJQsqaUBKTNV-1">
          <mxGeometry x="320" y="275" width="160" height="30" as="geometry" />
        </mxCell>
        <mxCell id="Xzc4rUqVlPyLkDSU207_-8" value="" style="rounded=1;whiteSpace=wrap;html=1;labelBackgroundColor=#FFFFFF;fontSize=16;strokeColor=default;strokeWidth=1;" vertex="1" parent="WIyWlLk6GJQsqaUBKTNV-1">
          <mxGeometry x="80" y="340" width="120" height="80" as="geometry" />
        </mxCell>
        <mxCell id="Xzc4rUqVlPyLkDSU207_-9" value="&lt;font style=&quot;font-size: 12px&quot;&gt;Corona Cases&lt;/font&gt;" style="text;html=1;strokeColor=none;fillColor=none;align=left;verticalAlign=middle;whiteSpace=wrap;rounded=0;labelBackgroundColor=#FFFFFF;fontSize=16;" vertex="1" parent="WIyWlLk6GJQsqaUBKTNV-1">
          <mxGeometry x="86" y="343" width="120" height="30" as="geometry" />
        </mxCell>
        <mxCell id="Xzc4rUqVlPyLkDSU207_-10" value="&lt;span style=&quot;font-size: 12px&quot;&gt;+2000&lt;/span&gt;" style="text;html=1;strokeColor=none;fillColor=none;align=left;verticalAlign=middle;whiteSpace=wrap;rounded=0;labelBackgroundColor=#FFFFFF;fontSize=16;" vertex="1" parent="WIyWlLk6GJQsqaUBKTNV-1">
          <mxGeometry x="86" y="365" width="120" height="30" as="geometry" />
        </mxCell>
        <mxCell id="Xzc4rUqVlPyLkDSU207_-11" value="&lt;span style=&quot;font-size: 12px&quot;&gt;1.2 M Total&lt;/span&gt;" style="text;html=1;strokeColor=none;fillColor=none;align=left;verticalAlign=middle;whiteSpace=wrap;rounded=0;labelBackgroundColor=#FFFFFF;fontSize=16;" vertex="1" parent="WIyWlLk6GJQsqaUBKTNV-1">
          <mxGeometry x="86" y="390" width="120" height="30" as="geometry" />
        </mxCell>
        <mxCell id="Xzc4rUqVlPyLkDSU207_-29" value="" style="rounded=1;whiteSpace=wrap;html=1;labelBackgroundColor=#FFFFFF;fontSize=16;strokeColor=default;strokeWidth=1;" vertex="1" parent="WIyWlLk6GJQsqaUBKTNV-1">
          <mxGeometry x="220" y="340" width="120" height="80" as="geometry" />
        </mxCell>
        <mxCell id="Xzc4rUqVlPyLkDSU207_-30" value="&lt;font style=&quot;font-size: 12px&quot;&gt;Recovered&lt;/font&gt;" style="text;html=1;strokeColor=none;fillColor=none;align=left;verticalAlign=middle;whiteSpace=wrap;rounded=0;labelBackgroundColor=#FFFFFF;fontSize=16;" vertex="1" parent="WIyWlLk6GJQsqaUBKTNV-1">
          <mxGeometry x="226" y="343" width="120" height="30" as="geometry" />
        </mxCell>
        <mxCell id="Xzc4rUqVlPyLkDSU207_-31" value="&lt;span style=&quot;font-size: 12px&quot;&gt;+2000&lt;/span&gt;" style="text;html=1;strokeColor=none;fillColor=none;align=left;verticalAlign=middle;whiteSpace=wrap;rounded=0;labelBackgroundColor=#FFFFFF;fontSize=16;" vertex="1" parent="WIyWlLk6GJQsqaUBKTNV-1">
          <mxGeometry x="226" y="365" width="120" height="30" as="geometry" />
        </mxCell>
        <mxCell id="Xzc4rUqVlPyLkDSU207_-32" value="&lt;span style=&quot;font-size: 12px&quot;&gt;1.2 M Total&lt;/span&gt;" style="text;html=1;strokeColor=none;fillColor=none;align=left;verticalAlign=middle;whiteSpace=wrap;rounded=0;labelBackgroundColor=#FFFFFF;fontSize=16;" vertex="1" parent="WIyWlLk6GJQsqaUBKTNV-1">
          <mxGeometry x="226" y="390" width="120" height="30" as="geometry" />
        </mxCell>
        <mxCell id="Xzc4rUqVlPyLkDSU207_-33" value="" style="rounded=1;whiteSpace=wrap;html=1;labelBackgroundColor=#FFFFFF;fontSize=16;strokeColor=default;strokeWidth=1;" vertex="1" parent="WIyWlLk6GJQsqaUBKTNV-1">
          <mxGeometry x="360" y="340" width="120" height="80" as="geometry" />
        </mxCell>
        <mxCell id="Xzc4rUqVlPyLkDSU207_-34" value="&lt;font style=&quot;font-size: 12px&quot;&gt;Corona Cases&lt;/font&gt;" style="text;html=1;strokeColor=none;fillColor=none;align=left;verticalAlign=middle;whiteSpace=wrap;rounded=0;labelBackgroundColor=#FFFFFF;fontSize=16;" vertex="1" parent="WIyWlLk6GJQsqaUBKTNV-1">
          <mxGeometry x="366" y="343" width="120" height="30" as="geometry" />
        </mxCell>
        <mxCell id="Xzc4rUqVlPyLkDSU207_-35" value="&lt;span style=&quot;font-size: 12px&quot;&gt;+2000&lt;/span&gt;" style="text;html=1;strokeColor=none;fillColor=none;align=left;verticalAlign=middle;whiteSpace=wrap;rounded=0;labelBackgroundColor=#FFFFFF;fontSize=16;" vertex="1" parent="WIyWlLk6GJQsqaUBKTNV-1">
          <mxGeometry x="366" y="365" width="120" height="30" as="geometry" />
        </mxCell>
        <mxCell id="Xzc4rUqVlPyLkDSU207_-36" value="&lt;span style=&quot;font-size: 12px&quot;&gt;1.2 M Total&lt;/span&gt;" style="text;html=1;strokeColor=none;fillColor=none;align=left;verticalAlign=middle;whiteSpace=wrap;rounded=0;labelBackgroundColor=#FFFFFF;fontSize=16;" vertex="1" parent="WIyWlLk6GJQsqaUBKTNV-1">
          <mxGeometry x="366" y="390" width="120" height="30" as="geometry" />
        </mxCell>
        <mxCell id="Xzc4rUqVlPyLkDSU207_-43" value="" style="rounded=1;whiteSpace=wrap;html=1;labelBackgroundColor=#FFFFFF;fontSize=12;strokeColor=default;strokeWidth=1;arcSize=6;" vertex="1" parent="WIyWlLk6GJQsqaUBKTNV-1">
          <mxGeometry x="80" y="450" width="400" height="310" as="geometry" />
        </mxCell>
        <mxCell id="Xzc4rUqVlPyLkDSU207_-44" value="" style="shape=image;imageAspect=0;aspect=fixed;verticalLabelPosition=bottom;verticalAlign=top;labelBackgroundColor=#FFFFFF;fontSize=12;strokeColor=default;strokeWidth=1;image=https://smilebriteorthodontics.com/wp-content/uploads/2017/03/map-map-marker-icon.png;" vertex="1" parent="WIyWlLk6GJQsqaUBKTNV-1">
          <mxGeometry x="160" y="490" width="220" height="220" as="geometry" />
        </mxCell>
        <mxCell id="Xzc4rUqVlPyLkDSU207_-45" value="" style="rounded=1;whiteSpace=wrap;html=1;labelBackgroundColor=#FFFFFF;fontSize=12;strokeColor=default;strokeWidth=1;arcSize=9;" vertex="1" parent="WIyWlLk6GJQsqaUBKTNV-1">
          <mxGeometry x="510" y="270" width="240" height="490" as="geometry" />
        </mxCell>
        <mxCell id="Xzc4rUqVlPyLkDSU207_-46" value="&lt;font style=&quot;font-size: 16px&quot;&gt;Cases By Country&lt;/font&gt;" style="text;html=1;strokeColor=none;fillColor=none;align=center;verticalAlign=middle;whiteSpace=wrap;rounded=0;labelBackgroundColor=#FFFFFF;fontSize=12;" vertex="1" parent="WIyWlLk6GJQsqaUBKTNV-1">
          <mxGeometry x="520" y="280" width="140" height="30" as="geometry" />
        </mxCell>
        <mxCell id="Xzc4rUqVlPyLkDSU207_-47" value="&lt;font style=&quot;font-size: 16px&quot;&gt;Worldwide New Cases&lt;/font&gt;" style="text;html=1;strokeColor=none;fillColor=none;align=center;verticalAlign=middle;whiteSpace=wrap;rounded=0;labelBackgroundColor=#FFFFFF;fontSize=12;" vertex="1" parent="WIyWlLk6GJQsqaUBKTNV-1">
          <mxGeometry x="520" y="580" width="170" height="30" as="geometry" />
        </mxCell>
        <mxCell id="Xzc4rUqVlPyLkDSU207_-78" value="" style="fillColor=#10739E;strokeColor=none;labelBackgroundColor=#FFFFFF;fontSize=16;" vertex="1" parent="WIyWlLk6GJQsqaUBKTNV-1">
          <mxGeometry x="540" y="650" width="30" height="100" as="geometry" />
        </mxCell>
        <mxCell id="Xzc4rUqVlPyLkDSU207_-79" value="" style="shape=mxgraph.arrows2.arrow;dy=0.4;dx=16;notch=0;direction=north;fillColor=#1699D3;strokeColor=none;labelBackgroundColor=#FFFFFF;fontSize=16;" vertex="1" parent="Xzc4rUqVlPyLkDSU207_-78">
          <mxGeometry x="3" y="30" width="24" height="70" as="geometry" />
        </mxCell>
        <mxCell id="Xzc4rUqVlPyLkDSU207_-80" value="Label" style="text;html=1;align=center;verticalAlign=middle;whiteSpace=wrap;fontColor=#FFFFFF;fontSize=10;labelBackgroundColor=#FFFFFF;strokeColor=default;strokeWidth=1;" vertex="1" parent="Xzc4rUqVlPyLkDSU207_-78">
          <mxGeometry width="30" height="20" as="geometry" />
        </mxCell>
        <mxCell id="Xzc4rUqVlPyLkDSU207_-81" value="" style="fillColor=#F2931E;strokeColor=none;labelBackgroundColor=#FFFFFF;fontSize=16;" vertex="1" parent="WIyWlLk6GJQsqaUBKTNV-1">
          <mxGeometry x="575" y="630" width="30" height="120" as="geometry" />
        </mxCell>
        <mxCell id="Xzc4rUqVlPyLkDSU207_-82" value="" style="shape=mxgraph.arrows2.arrow;dy=0.4;dx=16;notch=0;direction=south;fillColor=#F5AB50;strokeColor=none;labelBackgroundColor=#FFFFFF;fontSize=16;" vertex="1" parent="Xzc4rUqVlPyLkDSU207_-81">
          <mxGeometry x="3" width="24" height="80" as="geometry" />
        </mxCell>
        <mxCell id="Xzc4rUqVlPyLkDSU207_-83" value="Label" style="text;html=1;align=center;verticalAlign=middle;whiteSpace=wrap;fontColor=#FFFFFF;fontSize=10;labelBackgroundColor=#FFFFFF;strokeColor=default;strokeWidth=1;" vertex="1" parent="Xzc4rUqVlPyLkDSU207_-81">
          <mxGeometry width="30" height="20" as="geometry" />
        </mxCell>
        <mxCell id="Xzc4rUqVlPyLkDSU207_-84" value="" style="fillColor=#AE4132;strokeColor=none;labelBackgroundColor=#FFFFFF;fontSize=16;" vertex="1" parent="WIyWlLk6GJQsqaUBKTNV-1">
          <mxGeometry x="610" y="620" width="30" height="130" as="geometry" />
        </mxCell>
        <mxCell id="Xzc4rUqVlPyLkDSU207_-85" value="" style="shape=mxgraph.arrows2.arrow;dy=0.4;dx=16;notch=0;direction=north;fillColor=#E85642;strokeColor=none;labelBackgroundColor=#FFFFFF;fontSize=16;" vertex="1" parent="Xzc4rUqVlPyLkDSU207_-84">
          <mxGeometry x="3" y="80" width="24" height="50" as="geometry" />
        </mxCell>
        <mxCell id="Xzc4rUqVlPyLkDSU207_-86" value="Label" style="text;html=1;align=center;verticalAlign=middle;whiteSpace=wrap;fontColor=#FFFFFF;fontSize=10;labelBackgroundColor=#FFFFFF;strokeColor=default;strokeWidth=1;" vertex="1" parent="Xzc4rUqVlPyLkDSU207_-84">
          <mxGeometry width="30" height="20" as="geometry" />
        </mxCell>
        <mxCell id="Xzc4rUqVlPyLkDSU207_-87" value="" style="fillColor=#12AAB5;strokeColor=none;labelBackgroundColor=#FFFFFF;fontSize=16;" vertex="1" parent="WIyWlLk6GJQsqaUBKTNV-1">
          <mxGeometry x="645" y="670" width="30" height="80" as="geometry" />
        </mxCell>
        <mxCell id="Xzc4rUqVlPyLkDSU207_-88" value="" style="shape=mxgraph.arrows2.arrow;dy=0.4;dx=16;notch=0;direction=south;fillColor=#64BBE2;strokeColor=none;labelBackgroundColor=#FFFFFF;fontSize=16;" vertex="1" parent="Xzc4rUqVlPyLkDSU207_-87">
          <mxGeometry x="3" width="24" height="30" as="geometry" />
        </mxCell>
        <mxCell id="Xzc4rUqVlPyLkDSU207_-89" value="Label" style="text;html=1;align=center;verticalAlign=middle;whiteSpace=wrap;fontColor=#FFFFFF;fontSize=10;labelBackgroundColor=#FFFFFF;strokeColor=default;strokeWidth=1;" vertex="1" parent="Xzc4rUqVlPyLkDSU207_-87">
          <mxGeometry width="30" height="20" as="geometry" />
        </mxCell>
        <mxCell id="Xzc4rUqVlPyLkDSU207_-90" value="" style="fillColor=#23445D;strokeColor=none;labelBackgroundColor=#FFFFFF;fontSize=16;" vertex="1" parent="WIyWlLk6GJQsqaUBKTNV-1">
          <mxGeometry x="680" y="680" width="30" height="70" as="geometry" />
        </mxCell>
        <mxCell id="Xzc4rUqVlPyLkDSU207_-91" value="" style="shape=mxgraph.arrows2.arrow;dy=0.4;dx=16;notch=0;direction=north;fillColor=#2F5B7C;strokeColor=none;labelBackgroundColor=#FFFFFF;fontSize=16;" vertex="1" parent="Xzc4rUqVlPyLkDSU207_-90">
          <mxGeometry x="3" y="10" width="24" height="60" as="geometry" />
        </mxCell>
        <mxCell id="Xzc4rUqVlPyLkDSU207_-92" value="Label" style="text;html=1;align=center;verticalAlign=middle;whiteSpace=wrap;fontColor=#FFFFFF;fontSize=10;labelBackgroundColor=#FFFFFF;strokeColor=default;strokeWidth=1;" vertex="1" parent="Xzc4rUqVlPyLkDSU207_-90">
          <mxGeometry width="30" height="20" as="geometry" />
        </mxCell>
        <mxCell id="Xzc4rUqVlPyLkDSU207_-95" value="" style="shape=table;html=1;whiteSpace=wrap;startSize=0;container=1;collapsible=0;childLayout=tableLayout;columnLines=0;rowLines=0;labelBackgroundColor=#FFFFFF;fontSize=16;strokeColor=default;strokeWidth=1;" vertex="1" parent="WIyWlLk6GJQsqaUBKTNV-1">
          <mxGeometry x="530" y="320" width="200" height="250" as="geometry" />
        </mxCell>
        <mxCell id="Xzc4rUqVlPyLkDSU207_-96" value="" style="shape=tableRow;horizontal=0;startSize=0;swimlaneHead=0;swimlaneBody=0;top=0;left=0;bottom=0;right=0;collapsible=0;dropTarget=0;fillColor=none;points=[[0,0.5],[1,0.5]];portConstraint=eastwest;labelBackgroundColor=#FFFFFF;fontSize=16;strokeColor=default;strokeWidth=1;" vertex="1" parent="Xzc4rUqVlPyLkDSU207_-95">
          <mxGeometry width="200" height="83" as="geometry" />
        </mxCell>
        <mxCell id="Xzc4rUqVlPyLkDSU207_-97" value="Value 1" style="shape=partialRectangle;html=1;whiteSpace=wrap;connectable=0;fillColor=none;top=0;left=0;bottom=0;right=0;overflow=hidden;fontSize=12;labelBackgroundColor=#FFFFFF;strokeColor=default;strokeWidth=1;" vertex="1" parent="Xzc4rUqVlPyLkDSU207_-96">
          <mxGeometry width="67" height="83" as="geometry">
            <mxRectangle width="67" height="83" as="alternateBounds" />
          </mxGeometry>
        </mxCell>
        <mxCell id="Xzc4rUqVlPyLkDSU207_-98" value="Value 2" style="shape=partialRectangle;html=1;whiteSpace=wrap;connectable=0;fillColor=none;top=0;left=0;bottom=0;right=0;overflow=hidden;fontSize=12;labelBackgroundColor=#FFFFFF;strokeColor=default;strokeWidth=1;" vertex="1" parent="Xzc4rUqVlPyLkDSU207_-96">
          <mxGeometry x="67" width="66" height="83" as="geometry">
            <mxRectangle width="66" height="83" as="alternateBounds" />
          </mxGeometry>
        </mxCell>
        <mxCell id="Xzc4rUqVlPyLkDSU207_-99" value="Value 3" style="shape=partialRectangle;html=1;whiteSpace=wrap;connectable=0;fillColor=none;top=0;left=0;bottom=0;right=0;overflow=hidden;fontSize=12;labelBackgroundColor=#FFFFFF;strokeColor=default;strokeWidth=1;" vertex="1" parent="Xzc4rUqVlPyLkDSU207_-96">
          <mxGeometry x="133" width="67" height="83" as="geometry">
            <mxRectangle width="67" height="83" as="alternateBounds" />
          </mxGeometry>
        </mxCell>
        <mxCell id="Xzc4rUqVlPyLkDSU207_-100" value="" style="shape=tableRow;horizontal=0;startSize=0;swimlaneHead=0;swimlaneBody=0;top=0;left=0;bottom=0;right=0;collapsible=0;dropTarget=0;fillColor=none;points=[[0,0.5],[1,0.5]];portConstraint=eastwest;labelBackgroundColor=#FFFFFF;fontSize=16;strokeColor=default;strokeWidth=1;" vertex="1" parent="Xzc4rUqVlPyLkDSU207_-95">
          <mxGeometry y="83" width="200" height="84" as="geometry" />
        </mxCell>
        <mxCell id="Xzc4rUqVlPyLkDSU207_-101" value="Value 4" style="shape=partialRectangle;html=1;whiteSpace=wrap;connectable=0;fillColor=none;top=0;left=0;bottom=0;right=0;overflow=hidden;fontSize=12;labelBackgroundColor=#FFFFFF;strokeColor=default;strokeWidth=1;" vertex="1" parent="Xzc4rUqVlPyLkDSU207_-100">
          <mxGeometry width="67" height="84" as="geometry">
            <mxRectangle width="67" height="84" as="alternateBounds" />
          </mxGeometry>
        </mxCell>
        <mxCell id="Xzc4rUqVlPyLkDSU207_-102" value="Value 5" style="shape=partialRectangle;html=1;whiteSpace=wrap;connectable=0;fillColor=none;top=0;left=0;bottom=0;right=0;overflow=hidden;fontSize=12;labelBackgroundColor=#FFFFFF;strokeColor=default;strokeWidth=1;" vertex="1" parent="Xzc4rUqVlPyLkDSU207_-100">
          <mxGeometry x="67" width="66" height="84" as="geometry">
            <mxRectangle width="66" height="84" as="alternateBounds" />
          </mxGeometry>
        </mxCell>
        <mxCell id="Xzc4rUqVlPyLkDSU207_-103" value="Value 6" style="shape=partialRectangle;html=1;whiteSpace=wrap;connectable=0;fillColor=none;top=0;left=0;bottom=0;right=0;overflow=hidden;fontSize=12;labelBackgroundColor=#FFFFFF;strokeColor=default;strokeWidth=1;" vertex="1" parent="Xzc4rUqVlPyLkDSU207_-100">
          <mxGeometry x="133" width="67" height="84" as="geometry">
            <mxRectangle width="67" height="84" as="alternateBounds" />
          </mxGeometry>
        </mxCell>
        <mxCell id="Xzc4rUqVlPyLkDSU207_-104" value="" style="shape=tableRow;horizontal=0;startSize=0;swimlaneHead=0;swimlaneBody=0;top=0;left=0;bottom=0;right=0;collapsible=0;dropTarget=0;fillColor=none;points=[[0,0.5],[1,0.5]];portConstraint=eastwest;labelBackgroundColor=#FFFFFF;fontSize=16;strokeColor=default;strokeWidth=1;" vertex="1" parent="Xzc4rUqVlPyLkDSU207_-95">
          <mxGeometry y="167" width="200" height="83" as="geometry" />
        </mxCell>
        <mxCell id="Xzc4rUqVlPyLkDSU207_-105" value="Value 7" style="shape=partialRectangle;html=1;whiteSpace=wrap;connectable=0;fillColor=none;top=0;left=0;bottom=0;right=0;overflow=hidden;fontSize=12;labelBackgroundColor=#FFFFFF;strokeColor=default;strokeWidth=1;" vertex="1" parent="Xzc4rUqVlPyLkDSU207_-104">
          <mxGeometry width="67" height="83" as="geometry">
            <mxRectangle width="67" height="83" as="alternateBounds" />
          </mxGeometry>
        </mxCell>
        <mxCell id="Xzc4rUqVlPyLkDSU207_-106" value="Value 8" style="shape=partialRectangle;html=1;whiteSpace=wrap;connectable=0;fillColor=none;top=0;left=0;bottom=0;right=0;overflow=hidden;fontSize=12;labelBackgroundColor=#FFFFFF;strokeColor=default;strokeWidth=1;" vertex="1" parent="Xzc4rUqVlPyLkDSU207_-104">
          <mxGeometry x="67" width="66" height="83" as="geometry">
            <mxRectangle width="66" height="83" as="alternateBounds" />
          </mxGeometry>
        </mxCell>
        <mxCell id="Xzc4rUqVlPyLkDSU207_-107" value="Value 9" style="shape=partialRectangle;html=1;whiteSpace=wrap;connectable=0;fillColor=none;top=0;left=0;bottom=0;right=0;overflow=hidden;fontSize=12;labelBackgroundColor=#FFFFFF;strokeColor=default;strokeWidth=1;" vertex="1" parent="Xzc4rUqVlPyLkDSU207_-104">
          <mxGeometry x="133" width="67" height="83" as="geometry">
            <mxRectangle width="67" height="83" as="alternateBounds" />
          </mxGeometry>
        </mxCell>
      </root>
    </mxGraphModel>
  </diagram>
</mxfile>
